<svg width="50" height="50" viewBox="0 0 50 50" fill="none" xmlns="http://www.w3.org/2000/svg">
<path d="M4.86047 22.0943C4.65878 21.3308 4.65875 20.5269 4.86038 19.7634C5.06202 18.9999 5.45821 18.3036 6.00913 17.7447L17.489 6.09716C18.0399 5.53819 18.7261 5.13621 19.4786 4.93163C20.2312 4.72705 21.0235 4.72708 21.7761 4.93172L32.5184 7.85215C32.6302 6.359 33.1425 4.92532 34 3.70642L21.0616 0.18933C20.133 -0.0631155 19.1552 -0.0631103 18.2265 0.189347C17.2978 0.441805 16.451 0.937822 15.7712 1.62755L1.60412 16.0015C0.924318 16.6913 0.435444 17.5504 0.186622 18.4927C-0.0622018 19.4349 -0.0622072 20.427 0.186605 21.3692L3.78642 35C4.96321 34.0882 6.36426 33.5219 7.83665 33.3631L4.86047 22.0943Z" fill="#6D7D7D"/>
<path d="M41.948 16.7451L45.0685 28.2231C45.2732 28.9758 45.2729 29.7681 45.0685 30.5205C44.8638 31.2732 44.4617 31.9593 43.9028 32.5102L32.2552 43.9907C31.6963 44.5416 31.0002 44.9376 30.2365 45.1394C29.4731 45.3409 28.669 45.3409 27.9056 45.1394L16.6369 42.1631C16.4781 43.6356 15.9119 45.0367 15 46.2134L28.6307 49.8133C29.5729 50.0622 30.565 50.0622 31.5072 49.8133C32.4496 49.5644 33.3086 49.0757 33.9985 48.3958L48.3724 34.2284C49.0622 33.5485 49.558 32.7018 49.8106 31.7729C50.0631 30.8443 50.0631 29.8664 49.8106 28.9378L46.0205 15C44.8517 15.9402 43.4425 16.5441 41.948 16.7451Z" fill="#6D7D7D"/>
<path d="M3.90385 36.9012C2.99479 37.8103 2.37571 38.969 2.1249 40.23C1.87409 41.4913 2.00281 42.7985 2.49479 43.9866C2.98674 45.1743 3.81987 46.1898 4.88878 46.9043C5.95771 47.6185 7.21441 48 8.5 48C9.78558 48 11.0423 47.6185 12.1112 46.9043C13.1801 46.1898 14.0133 45.1743 14.5052 43.9866C14.9972 42.7985 15.1259 41.4913 14.8751 40.23C14.6243 38.969 14.0052 37.8103 13.0962 36.9012C11.8762 35.6838 10.2233 35 8.5 35C6.77671 35 5.12378 35.6838 3.90385 36.9012Z" fill="#6D7D7D"/>
<path d="M35.9038 3.9012C34.9949 4.81044 34.3755 5.96889 34.1249 7.23008C33.8741 8.49123 34.0028 9.79848 34.4948 10.9865C34.9868 12.1745 35.8198 13.1899 36.8886 13.9043C37.9577 14.6187 39.2144 15 40.4999 15C41.7856 15 43.0423 14.6187 44.1114 13.9043C45.1802 13.1899 46.0132 12.1745 46.5052 10.9865C46.9972 9.79848 47.1259 8.49123 46.8751 7.23008C46.6245 5.96889 46.0051 4.81044 45.0962 3.9012C43.8764 2.68373 42.2233 2 40.4999 2C38.7767 2 37.1236 2.68373 35.9038 3.9012Z" fill="#6D7D7D"/>
<path d="M28.7654 42C28.5078 42 28.2515 41.9663 28.0027 41.8996L17.9797 39.2139C17.6455 37.4293 16.7796 35.7873 15.4957 34.5036C14.2118 33.2199 12.5698 32.3538 10.7851 32.0198L8.09957 21.9981C7.96643 21.4982 7.96681 20.9722 8.10071 20.4725C8.23462 19.9728 8.49733 19.517 8.86258 19.1507L19.1501 8.86347C19.516 8.49752 19.9718 8.23438 20.4717 8.10042C20.9717 7.9665 21.498 7.96653 21.9979 8.1005L31.7399 10.7108C32.1263 12.4843 33.0394 14.0998 34.3596 15.3456C35.6798 16.5915 37.3455 17.4096 39.1384 17.6927L41.9005 28.0025C42.0335 28.5026 42.0333 29.0287 41.8991 29.5282C41.7653 30.028 41.5026 30.4837 41.1372 30.8502L30.8497 41.1372C30.5767 41.4115 30.2516 41.6293 29.8939 41.7772C29.5361 41.9254 29.1526 42.0011 28.7654 42Z" fill="#6D7D7D"/>
</svg>
